<svg xmlns="http://www.w3.org/2000/svg" xmlns:xlink="http://www.w3.org/1999/xlink" viewBox="0 0 147.16 223.59"><defs><style>.cls-1{fill:url(#Degradado_sin_nombre_18);}.cls-2{fill:url(#Degradado_sin_nombre_9);}.cls-3{fill:#c3d558;}</style><linearGradient id="Degradado_sin_nombre_18" x1="96.28" y1="147.43" x2="181.33" y2="74.67" gradientUnits="userSpaceOnUse"><stop offset="0" stop-color="#7e8437"/><stop offset="0.2" stop-color="#929b40"/><stop offset="0.53" stop-color="#adbb4d"/><stop offset="0.81" stop-color="#bdce55"/><stop offset="1" stop-color="#c3d558"/></linearGradient><linearGradient id="Degradado_sin_nombre_9" x1="63.76" y1="94.35" x2="141.59" y2="5.95" gradientUnits="userSpaceOnUse"><stop offset="0.03" stop-color="#7e8437"/><stop offset="0.08" stop-color="#8e973f"/><stop offset="0.18" stop-color="#a2ae48"/><stop offset="0.28" stop-color="#b1bf4f"/><stop offset="0.41" stop-color="#bbcc54"/><stop offset="0.58" stop-color="#c1d357"/><stop offset="1" stop-color="#c3d558"/></linearGradient></defs><g id="Capa_2" data-name="Capa 2"><g id="Capa_1-2" data-name="Capa 1"><path class="cls-1" d="M129.4,96.38l-9.77,6.31L83,126.31a13.07,13.07,0,0,0,5.64,8.93l31,20,21.72-14A13.24,13.24,0,0,0,147.16,130V107.53C147.16,97.53,137.26,91.31,129.4,96.38Z"/><path class="cls-2" d="M114.54,3.31l-18,11.59L29.38,58.28a23.92,23.92,0,0,0,10.36,16.4l56.85,36.7,39.89-25.75a24.3,24.3,0,0,0,10.68-20.49V23.8C147.16,5.42,129-6,114.54,3.31Z"/><path class="cls-3" d="M147.16,158.45v41.34c0,18.38-18.19,29.8-32.62,20.48l-103.8-67-.06,0c-.42-.27-.82-.55-1.23-.85s-.76-.6-1.13-.91a22.59,22.59,0,0,1-3.06-3.2c-.16-.19-.3-.39-.45-.59a24.65,24.65,0,0,1-4.25-9.55c-.05-.25-.1-.49-.14-.73A24.56,24.56,0,0,1,0,133.84c0-.36,0-.73,0-1.1V91.39c0-.37,0-.73,0-1.09,0-.14,0-.27,0-.41a2.17,2.17,0,0,1,0-.26c0-.39.07-.77.1-1.15s.09-.7.14-1,.1-.63.16-1A24.77,24.77,0,0,1,5.34,75.75c.15-.2.33-.4.49-.6s.42-.49.64-.72l.76-.78.54-.5a6.17,6.17,0,0,1,.54-.48q.33-.3.69-.57c.28-.22.56-.44.86-.64s.58-.4.88-.6l18.64-12a23.92,23.92,0,0,0,10.36,16.4l56.85,36.7-.22.15L136.48,138A24.29,24.29,0,0,1,147.16,158.45Z"/></g></g></svg>